<svg xmlns="http://www.w3.org/2000/svg" viewBox="0 0 48 60" x="0px" y="0px"><title>Ui vol.1</title><g data-name="Layer 5"><path d="M45.28125,1.19385H2.71875a.99974.99974,0,0,0-1,1v43.3125a.99974.99974,0,0,0,1,1h42.5625a.99974.99974,0,0,0,1-1V2.19385A.99974.99974,0,0,0,45.28125,1.19385Zm-1,43.3125H3.71875V3.19385h40.5625Z"/><path d="M9.72461,24.7002H23V37.9751a1,1,0,0,0,2,0V24.7002H38.27539a1,1,0,0,0,0-2H25V9.42529a1,1,0,0,0-2,0V22.7002H9.72461a1,1,0,0,0,0,2Z"/></g><text x="0" y="63" fill="#000000" font-size="5px" font-weight="bold" font-family="'Helvetica Neue', Helvetica, Arial-Unicode, Arial, Sans-serif">Created by Mega Agustina</text><text x="0" y="68" fill="#000000" font-size="5px" font-weight="bold" font-family="'Helvetica Neue', Helvetica, Arial-Unicode, Arial, Sans-serif">from the Noun Project</text></svg>