<svg xmlns="http://www.w3.org/2000/svg" viewBox="0 0 32 40" x="0px" y="0px"><path d="M28.60693,31.0415H3.39307A1.72816,1.72816,0,0,1,1.667,29.31543V5.77A1.72816,1.72816,0,0,1,3.39307,4.044H6.82764V3.21A2.20535,2.20535,0,0,1,9.0791.97754a2.20219,2.20219,0,0,1,2.251,2.21973V4.044h2.604V3.21a2.25137,2.25137,0,0,1,4.50244-.01269V4.044h2.604V3.21A2.25137,2.25137,0,0,1,25.543,3.19727V4.044h3.064A1.72816,1.72816,0,0,1,30.333,5.77V29.31543A1.72816,1.72816,0,0,1,28.60693,31.0415ZM3.39307,5.044A.72686.72686,0,0,0,2.667,5.77V29.31543a.72686.72686,0,0,0,.72608.72607H28.60693a.72686.72686,0,0,0,.72608-.72607V5.77a.72686.72686,0,0,0-.72608-.72607h-6.5664v2.252a.5.5,0,0,1-1,0V5.044H14.93408v2.252a.5.5,0,0,1-1,0V5.044H7.82764v2.252a.5.5,0,0,1-1,0V5.044Zm18.64746-1H24.543V3.21a1.2513,1.2513,0,0,0-2.50244.0127Zm-7.10645,0h2.50244V3.21a1.2513,1.2513,0,0,0-2.50244.0127Zm-7.10644,0h2.50244V3.21A1.19992,1.19992,0,0,0,9.07861,1.97754a1.20274,1.20274,0,0,0-1.251,1.24512Zm19.3872,24.37939H4.78516a.49971.49971,0,0,1-.5-.5V11.10059a.49971.49971,0,0,1,.5-.5H27.21484a.49971.49971,0,0,1,.5.5V27.92334A.49971.49971,0,0,1,27.21484,28.42334Zm-5.10742-1h4.60742V22.81592H22.10742Zm-5.60742,0h4.60742V22.81592H16.5Zm-5.60742,0H15.5V22.81592H10.89258Zm-5.60742,0H9.89258V22.81592H5.28516Zm16.82226-5.60742h4.60742V17.2085H22.10742Zm-5.60742,0h4.60742V17.2085H16.5Zm-5.60742,0H15.5V17.2085H10.89258Zm-5.60742,0H9.89258V17.2085H5.28516ZM22.10742,16.2085h4.60742V11.60059H22.10742Zm-5.60742,0h4.60742V11.60059H16.5Zm-5.60742,0H15.5V11.60059H10.89258Zm-5.60742,0H9.89258V11.60059H5.28516Z"/><text x="0" y="47" fill="#000000" font-size="5px" font-weight="bold" font-family="'Helvetica Neue', Helvetica, Arial-Unicode, Arial, Sans-serif">Created by Dicky Prayudawanto</text><text x="0" y="52" fill="#000000" font-size="5px" font-weight="bold" font-family="'Helvetica Neue', Helvetica, Arial-Unicode, Arial, Sans-serif">from the Noun Project</text></svg>