<svg xmlns="http://www.w3.org/2000/svg" version="1.1" viewBox="-5.0 -10.0 110.0 135.0">
 <g fill-rule="evenodd">
  <path d="m88.453 60.922c-0.92578-0.32422-1.7969-0.85938-2.5352-1.6016l-35.918-35.914-35.918 35.914c-0.73828 0.74219-1.6094 1.2773-2.5352 1.6016v29.793c0 3.7461 3.0391 6.7852 6.7852 6.7852h20.359v-27.141c0-2.5 2.0234-4.5234 4.5234-4.5234h13.57c2.5 0 4.5234 2.0234 4.5234 4.5234v27.141h20.355c3.7461 0 6.7852-3.0391 6.7852-6.7852z"/>
  <path d="m88.453 18.336v21.684l8.3867 8.3867c0.88281 0.88281 0.88281 2.3164 0 3.1992l-4.5234 4.5234c-0.88281 0.88281-2.3164 0.88281-3.1992 0l-37.52-37.52c-0.88281-0.88281-2.3164-0.88281-3.1992 0l-37.512 37.516c-0.88281 0.88281-2.3164 0.88281-3.1992 0l-4.5234-4.5234c-0.88281-0.88281-0.88281-2.3164 0-3.1992l45.238-45.238c0.88281-0.88281 2.3164-0.88281 3.1992 0l27.805 27.805v-12.637c0-1.25 1.0117-2.2617 2.2617-2.2617h4.5234c1.2461 0 2.2617 1.0156 2.2617 2.2656z"/>
 </g>
<text x="0.0" y="117.5" font-size="5.0" font-weight="bold" font-family="Arbeit Regular, Helvetica, Arial-Unicode, Arial, Sans-serif" fill="#000000">Created by karenzavil</text><text x="0.0" y="122.5" font-size="5.0" font-weight="bold" font-family="Arbeit Regular, Helvetica, Arial-Unicode, Arial, Sans-serif" fill="#000000">from Noun Project</text></svg>